<svg width="20" height="20" viewBox="0 0 20 20" fill="none" xmlns="http://www.w3.org/2000/svg">
<g clip-path="url(#clip0_8395_2685)">
<path d="M3.33325 5.83335C3.33325 5.39133 3.50885 4.9674 3.82141 4.65484C4.13397 4.34228 4.55789 4.16669 4.99992 4.16669H14.9999C15.4419 4.16669 15.8659 4.34228 16.1784 4.65484C16.491 4.9674 16.6666 5.39133 16.6666 5.83335V15.8334C16.6666 16.2754 16.491 16.6993 16.1784 17.0119C15.8659 17.3244 15.4419 17.5 14.9999 17.5H4.99992C4.55789 17.5 4.13397 17.3244 3.82141 17.0119C3.50885 16.6993 3.33325 16.2754 3.33325 15.8334V5.83335Z" stroke="#374253" stroke-linecap="round" stroke-linejoin="round"/>
<path d="M13.3333 2.5V5.83333" stroke="#374253" stroke-linecap="round" stroke-linejoin="round"/>
<path d="M6.66675 2.5V5.83333" stroke="#374253" stroke-linecap="round" stroke-linejoin="round"/>
<path d="M3.33325 9.16669H16.6666" stroke="#374253" stroke-linecap="round" stroke-linejoin="round"/>
<path d="M5.83325 11.6667H5.84409" stroke="#374253" stroke-linecap="round" stroke-linejoin="round"/>
<path d="M8.34155 11.6667H8.34555" stroke="#374253" stroke-linecap="round" stroke-linejoin="round"/>
<path d="M10.8416 11.6667H10.8456" stroke="#374253" stroke-linecap="round" stroke-linejoin="round"/>
<path d="M13.3459 11.6667H13.3499" stroke="#374253" stroke-linecap="round" stroke-linejoin="round"/>
<path d="M10.8459 14.1667H10.8499" stroke="#374253" stroke-linecap="round" stroke-linejoin="round"/>
<path d="M5.84155 14.1667H5.84655" stroke="#374253" stroke-linecap="round" stroke-linejoin="round"/>
<path d="M8.34155 14.1667H8.34555" stroke="#374253" stroke-linecap="round" stroke-linejoin="round"/>
</g>
<defs>
<clipPath id="clip0_8395_2685">
<rect width="20" height="20" fill="white"/>
</clipPath>
</defs>
</svg>
