<svg width="40" height="40" viewBox="0 0 40 40" fill="none" xmlns="http://www.w3.org/2000/svg">
<g clip-path="url(#clip0_4308_6755)">
<path d="M14.9997 5C15.2985 4.99992 15.5918 5.08016 15.849 5.23234C16.1061 5.38452 16.3176 5.60303 16.4613 5.865L16.5463 6.04833L19.8797 14.3817C20.0139 14.7169 20.0356 15.0867 19.9416 15.4354C19.8475 15.7841 19.6427 16.0928 19.358 16.315L19.1913 16.4283L16.4013 18.1017L16.5063 18.2733C17.8343 20.3817 19.618 22.1654 21.7263 23.4933L21.8963 23.5967L23.5713 20.81C23.757 20.5001 24.0382 20.259 24.3728 20.1228C24.7073 19.9866 25.0771 19.9628 25.4263 20.055L25.618 20.12L33.9513 23.4533C34.2288 23.564 34.4714 23.7473 34.6538 23.9839C34.8362 24.2205 34.9516 24.5018 34.988 24.7983L34.9997 25V31.6667C34.9997 34.4283 32.7613 36.6667 29.8997 36.6633C15.6013 35.795 4.20301 24.3967 3.33301 10C3.33294 8.72465 3.82022 7.49748 4.69515 6.56957C5.57008 5.64166 6.76652 5.08315 8.03967 5.00833L8.33301 5H14.9997Z" fill="#F5F7F9"/>
</g>
<defs>
<clipPath id="clip0_4308_6755">
<rect width="40" height="40" fill="white"/>
</clipPath>
</defs>
</svg>
